<?xml version="1.0" encoding="UTF-8" standalone="no"?>
<!DOCTYPE svg PUBLIC "-//W3C//DTD SVG 1.1//EN" "http://www.w3.org/Graphics/SVG/1.1/DTD/svg11.dtd">
<svg width="100%" height="100%" viewBox="0 0 190 190" version="1.1" xmlns="http://www.w3.org/2000/svg" xmlns:xlink="http://www.w3.org/1999/xlink" xml:space="preserve" xmlns:serif="http://www.serif.com/" style="fill-rule:evenodd;clip-rule:evenodd;stroke-linejoin:round;stroke-miterlimit:2;">
    <g transform="matrix(0.918812,0,0,1,0,0)">
        <rect x="0" y="0" width="206.68" height="189.9" style="fill:rgb(35,31,32);"/>
    </g>
    <g transform="matrix(1.03234,0,0,1.03234,-13.7506,-3.71619)">
        <path d="M59.19,68.16L60.45,68.16L60.45,121.74L57.63,121.74L57.63,69.72C57.63,68.86 58.33,68.16 59.19,68.16Z" style="fill:rgb(250,250,250);fill-rule:nonzero;"/>
        <path d="M82.3,74.24L78.89,74.24L78.89,41.07C78.89,40.21 79.59,39.51 80.45,39.51L82.3,39.51L82.3,74.24ZM82.3,74.24L79.87,74.24L79.87,123.54L82.3,123.54L82.3,74.24ZM81.08,123.54L79.86,123.54L79.86,152.56L81.08,152.56L81.08,123.54Z" style="fill:url(#_Linear1);fill-rule:nonzero;"/>
        <path d="M94.28,67.46L90.87,67.46L90.87,34.29C90.87,33.43 91.57,32.73 92.43,32.73L94.28,32.73L94.28,67.46ZM94.28,67.46L91.85,67.46L91.85,126.71L94.28,126.71L94.28,67.46ZM93.73,126.7L91.84,126.7L91.84,158.15L93.73,158.15L93.73,126.7Z" style="fill:url(#_Linear2);fill-rule:nonzero;"/>
        <path d="M104.56,30.12C105.42,30.12 106.12,30.82 106.12,31.68L106.12,64.85L103,64.85L103,31.68C103,30.82 103.7,30.12 104.56,30.12ZM105.78,64.85L103.35,64.85L103.35,97.08L105.78,97.08L105.78,64.85ZM105.78,97.08L103.35,97.08L103.35,161.03L105.78,161.03L105.78,97.08Z" style="fill:url(#_Linear3);fill-rule:nonzero;"/>
        <path d="M113.73,32.72L115.6,32.72C116.46,32.72 117.16,33.42 117.16,34.28L117.16,67.45L113.73,67.45L113.73,32.72ZM117.16,67.46L114.73,67.46L114.73,122.44L117.16,122.44L117.16,67.46ZM117.16,122.44L115.45,122.44L115.45,158.65L117.16,158.65L117.16,122.44Z" style="fill:url(#_Linear4);fill-rule:nonzero;"/>
        <path d="M126.26,38.82L128.11,38.82C128.97,38.82 129.67,39.52 129.67,40.38L129.67,73.55L126.26,73.55L126.26,38.82ZM129.19,73.55L126.76,73.55L126.76,120.09L129.19,120.09L129.19,73.55ZM129.19,120.09L126.76,120.09L126.76,151.54L129.19,151.54L129.19,120.09Z" style="fill:url(#_Linear5);fill-rule:nonzero;"/>
        <path d="M139.01,50.95L140.86,50.95C141.72,50.95 142.42,51.65 142.42,52.51L142.42,85.68L139.01,85.68L139.01,50.95ZM141.93,85.69L139.5,85.69L139.5,96.83L141.93,96.83L141.93,85.69ZM141.93,96.82L140.18,96.82L140.18,140.48L141.93,140.48L141.93,96.82Z" style="fill:url(#_Linear6);fill-rule:nonzero;"/>
        <path d="M150.15,68.32L151.4,68.32C152.26,68.32 152.96,69.02 152.96,69.88L152.96,103.05L150.15,103.05L150.15,68.32ZM152.13,103.05L150.15,103.05L150.15,121.48L152.13,121.48L152.13,103.05Z" style="fill:url(#_Linear7);fill-rule:nonzero;"/>
        <path d="M70.56,141.5L68.13,141.5L68.13,97.42L70.56,97.42L70.56,141.5ZM71.05,50.95L69.2,50.95C68.34,50.95 67.64,51.65 67.64,52.51L67.64,97.41L71.05,97.41L71.05,50.95Z" style="fill:url(#_Linear8);fill-rule:nonzero;"/>
    </g>
    <defs>
        <linearGradient id="_Linear1" x1="0" y1="0" x2="1" y2="0" gradientUnits="userSpaceOnUse" gradientTransform="matrix(6.92293e-15,-113.06,113.06,6.92293e-15,80.59,152.56)"><stop offset="0" style="stop-color:rgb(163,163,163);stop-opacity:1"/><stop offset="0" style="stop-color:rgb(134,133,134);stop-opacity:1"/><stop offset="0.51" style="stop-color:rgb(252,252,252);stop-opacity:1"/><stop offset="1" style="stop-color:rgb(225,227,226);stop-opacity:1"/></linearGradient>
        <linearGradient id="_Linear2" x1="0" y1="0" x2="1" y2="0" gradientUnits="userSpaceOnUse" gradientTransform="matrix(7.68037e-15,-125.43,125.43,7.68037e-15,92.57,158.15)"><stop offset="0" style="stop-color:rgb(163,163,163);stop-opacity:1"/><stop offset="0" style="stop-color:rgb(77,77,77);stop-opacity:1"/><stop offset="0.09" style="stop-color:rgb(149,149,149);stop-opacity:1"/><stop offset="0.51" style="stop-color:rgb(252,252,252);stop-opacity:1"/><stop offset="1" style="stop-color:rgb(225,227,226);stop-opacity:1"/></linearGradient>
        <linearGradient id="_Linear3" x1="0" y1="0" x2="1" y2="0" gradientUnits="userSpaceOnUse" gradientTransform="matrix(8.01593e-15,-130.91,130.91,8.01593e-15,104.56,161.03)"><stop offset="0" style="stop-color:rgb(163,163,163);stop-opacity:1"/><stop offset="0" style="stop-color:rgb(77,77,77);stop-opacity:1"/><stop offset="0.12" style="stop-color:rgb(100,100,100);stop-opacity:1"/><stop offset="0.22" style="stop-color:rgb(158,158,158);stop-opacity:1"/><stop offset="0.25" style="stop-color:rgb(149,149,149);stop-opacity:1"/><stop offset="0.51" style="stop-color:rgb(252,252,252);stop-opacity:1"/><stop offset="0.59" style="stop-color:rgb(250,250,250);stop-opacity:1"/><stop offset="1" style="stop-color:rgb(225,227,226);stop-opacity:1"/></linearGradient>
        <linearGradient id="_Linear4" x1="0" y1="0" x2="1" y2="0" gradientUnits="userSpaceOnUse" gradientTransform="matrix(7.71099e-15,-125.93,125.93,7.71099e-15,115.373,158.65)"><stop offset="0" style="stop-color:rgb(163,163,163);stop-opacity:1"/><stop offset="0" style="stop-color:rgb(77,77,77);stop-opacity:1"/><stop offset="0" style="stop-color:rgb(100,100,100);stop-opacity:1"/><stop offset="0.07" style="stop-color:rgb(149,149,149);stop-opacity:1"/><stop offset="0.09" style="stop-color:rgb(153,153,153);stop-opacity:1"/><stop offset="0.16" style="stop-color:rgb(158,158,158);stop-opacity:1"/><stop offset="0.51" style="stop-color:rgb(252,252,252);stop-opacity:1"/><stop offset="0.59" style="stop-color:rgb(250,250,250);stop-opacity:1"/><stop offset="1" style="stop-color:rgb(225,227,226);stop-opacity:1"/></linearGradient>
        <linearGradient id="_Linear5" x1="0" y1="0" x2="1" y2="0" gradientUnits="userSpaceOnUse" gradientTransform="matrix(6.90211e-15,-112.72,112.72,6.90211e-15,127.97,151.54)"><stop offset="0" style="stop-color:black;stop-opacity:1"/><stop offset="0.34" style="stop-color:rgb(250,250,250);stop-opacity:1"/><stop offset="1" style="stop-color:rgb(250,250,250);stop-opacity:1"/></linearGradient>
        <linearGradient id="_Linear6" x1="0" y1="0" x2="1" y2="0" gradientUnits="userSpaceOnUse" gradientTransform="matrix(5.48274e-15,-89.54,89.54,5.48274e-15,140.71,140.49)"><stop offset="0" style="stop-color:black;stop-opacity:1"/><stop offset="0.42" style="stop-color:rgb(250,250,250);stop-opacity:1"/><stop offset="1" style="stop-color:rgb(250,250,250);stop-opacity:1"/></linearGradient>
        <linearGradient id="_Linear7" x1="0" y1="0" x2="1" y2="0" gradientUnits="userSpaceOnUse" gradientTransform="matrix(3.25511e-15,-53.16,53.16,3.25511e-15,150.903,121.48)"><stop offset="0" style="stop-color:rgb(163,163,163);stop-opacity:1"/><stop offset="0" style="stop-color:rgb(108,108,109);stop-opacity:1"/><stop offset="0.05" style="stop-color:rgb(131,131,132);stop-opacity:1"/><stop offset="0.14" style="stop-color:rgb(167,167,168);stop-opacity:1"/><stop offset="0.16" style="stop-color:rgb(189,189,190);stop-opacity:1"/><stop offset="0.25" style="stop-color:rgb(230,230,230);stop-opacity:1"/><stop offset="0.3" style="stop-color:rgb(242,242,242);stop-opacity:1"/><stop offset="0.54" style="stop-color:rgb(252,252,252);stop-opacity:1"/><stop offset="1" style="stop-color:rgb(225,227,226);stop-opacity:1"/></linearGradient>
        <linearGradient id="_Linear8" x1="0" y1="0" x2="1" y2="0" gradientUnits="userSpaceOnUse" gradientTransform="matrix(5.54459e-15,-90.55,90.55,5.54459e-15,69.34,141.5)"><stop offset="0" style="stop-color:rgb(244,244,244);stop-opacity:1"/><stop offset="1" style="stop-color:rgb(244,244,244);stop-opacity:1"/></linearGradient>
    </defs>
</svg>
