<?xml version="1.0" encoding="UTF-8" standalone="no"?>
<!DOCTYPE svg PUBLIC "-//W3C//DTD SVG 1.1//EN" "http://www.w3.org/Graphics/SVG/1.1/DTD/svg11.dtd">
<svg width="100%" height="100%" viewBox="0 0 3240 594" version="1.1" xmlns="http://www.w3.org/2000/svg" xmlns:xlink="http://www.w3.org/1999/xlink" xml:space="preserve" xmlns:serif="http://www.serif.com/" style="fill-rule:evenodd;clip-rule:evenodd;stroke-linecap:round;stroke-linejoin:round;stroke-miterlimit:1.5;">
    <g id="Artboard1" transform="matrix(0.960998,0,0,0.641764,205.927,87.6386)">
        <rect x="-214.284" y="-136.559" width="3370.68" height="925.266" style="fill:none;"/>
        <g transform="matrix(0.801936,0,0,0.897965,-773.668,-1845.69)">
            <path d="M1653.29,2678.45L1653.29,2205.2L1705.82,2205.2L1705.82,2276.68L1709.5,2276.68C1715.95,2253.26 1727.63,2234.26 1744.52,2219.68C1761.42,2205.1 1780.46,2197.8 1801.66,2197.8C1805.65,2197.8 1810.64,2197.91 1816.64,2198.11C1822.63,2198.32 1827.16,2198.63 1830.23,2199.04L1830.23,2272.98C1828.39,2272.37 1824.2,2271.39 1817.67,2270.06C1811.14,2268.72 1804.27,2268.05 1797.05,2268.05C1779.85,2268.05 1764.53,2272.83 1751.09,2282.38C1737.65,2291.93 1727.05,2305.08 1719.29,2321.82C1711.54,2338.56 1707.66,2357.61 1707.66,2378.97L1707.66,2678.45L1653.29,2678.45Z" style="fill-rule:nonzero;"/>
            <path d="M2027.45,2688.31C1995.5,2688.31 1967.51,2678.15 1943.47,2657.81C1919.43,2637.47 1900.69,2609.03 1887.25,2572.47C1873.81,2535.9 1867.09,2493.18 1867.09,2444.29C1867.09,2394.99 1873.81,2351.96 1887.25,2315.19C1900.69,2278.43 1919.43,2249.88 1943.47,2229.54C1967.51,2209.2 1995.5,2199.04 2027.45,2199.04C2059.4,2199.04 2087.39,2209.2 2111.43,2229.54C2135.47,2249.88 2154.2,2278.43 2167.64,2315.19C2181.08,2351.96 2187.8,2394.99 2187.8,2444.29C2187.8,2493.18 2181.08,2535.9 2167.64,2572.47C2154.2,2609.03 2135.47,2637.47 2111.43,2657.81C2087.39,2678.15 2059.4,2688.31 2027.45,2688.31ZM2027.45,2622.99C2051.72,2622.99 2071.68,2614.68 2087.35,2598.04C2103.02,2581.4 2114.61,2559.52 2122.14,2532.41C2129.67,2505.3 2133.43,2475.92 2133.43,2444.29C2133.43,2412.66 2129.67,2383.18 2122.14,2355.87C2114.61,2328.55 2103.02,2306.47 2087.35,2289.62C2071.68,2272.78 2051.72,2264.36 2027.45,2264.36C2003.18,2264.36 1983.21,2272.78 1967.55,2289.62C1951.88,2306.47 1940.28,2328.55 1932.76,2355.87C1925.23,2383.18 1921.47,2412.66 1921.47,2444.29C1921.47,2475.92 1925.23,2505.3 1932.76,2532.41C1940.28,2559.52 1951.88,2581.4 1967.55,2598.04C1983.21,2614.68 2003.18,2622.99 2027.45,2622.99Z" style="fill-rule:nonzero;"/>
            <path d="M2493.77,2484.96L2493.77,2205.2L2548.14,2205.2L2548.14,2678.45L2493.77,2678.45L2493.77,2598.35L2490.08,2598.35C2481.79,2622.38 2468.89,2642.76 2451.38,2659.51C2433.87,2676.25 2411.75,2684.62 2385.02,2684.62C2362.91,2684.62 2343.24,2678.09 2326.04,2665.05C2308.84,2652.01 2295.32,2632.29 2285.49,2605.89C2275.66,2579.5 2270.75,2546.17 2270.75,2505.91L2270.75,2205.2L2325.12,2205.2L2325.12,2500.98C2325.12,2535.49 2332.38,2563.02 2346.89,2583.56C2361.41,2604.1 2379.95,2614.37 2402.53,2614.37C2416.05,2614.37 2429.84,2609.75 2443.89,2600.5C2457.94,2591.26 2469.77,2577.09 2479.37,2557.98C2488.97,2538.88 2493.77,2514.54 2493.77,2484.96Z" style="fill-rule:nonzero;"/>
            <path d="M2702.05,2393.76L2702.05,2678.45L2647.67,2678.45L2647.67,2205.2L2700.2,2205.2L2700.2,2279.15L2704.81,2279.15C2713.11,2255.11 2725.7,2235.75 2742.6,2221.07C2759.49,2206.38 2781.3,2199.04 2808.03,2199.04C2831.99,2199.04 2852.96,2205.56 2870.93,2218.6C2888.9,2231.65 2902.88,2251.37 2912.86,2277.76C2922.84,2304.15 2927.84,2337.48 2927.84,2377.74L2927.84,2678.45L2873.46,2678.45L2873.46,2382.67C2873.46,2345.49 2866.24,2316.48 2851.8,2295.63C2837.37,2274.78 2817.55,2264.36 2792.36,2264.36C2775.01,2264.36 2759.53,2269.39 2745.94,2279.45C2732.35,2289.52 2721.63,2304.2 2713.8,2323.51C2705.96,2342.82 2702.05,2366.24 2702.05,2393.76Z" style="fill-rule:nonzero;"/>
            <path d="M3161,2688.31C3131.51,2688.31 3105.47,2678.3 3082.89,2658.27C3060.31,2638.25 3042.65,2609.9 3029.9,2573.24C3017.15,2536.57 3010.78,2493.18 3010.78,2443.06C3010.78,2393.35 3017.15,2350.22 3029.9,2313.65C3042.65,2277.09 3060.39,2248.85 3083.12,2228.92C3105.86,2209 3132.12,2199.04 3161.92,2199.04C3184.96,2199.04 3203.2,2204.12 3216.64,2214.29C3230.08,2224.46 3240.37,2235.96 3247.51,2248.8C3254.65,2261.64 3260.22,2272.16 3264.21,2280.38L3268.82,2280.38L3268.82,2047.45L3323.2,2047.45L3323.2,2678.45L3270.66,2678.45L3270.66,2605.74L3264.21,2605.74C3260.22,2614.37 3254.54,2625.2 3247.16,2638.25C3239.79,2651.29 3229.27,2662.89 3215.6,2673.06C3201.93,2683.23 3183.73,2688.31 3161,2688.31ZM3168.37,2622.99C3190.18,2622.99 3208.61,2615.34 3223.66,2600.04C3238.72,2584.74 3250.16,2563.48 3257.99,2536.26C3265.83,2509.05 3269.74,2477.57 3269.74,2441.83C3269.74,2406.5 3265.9,2375.53 3258.22,2348.93C3250.54,2322.33 3239.18,2301.59 3224.12,2286.69C3209.07,2271.8 3190.49,2264.36 3168.37,2264.36C3145.33,2264.36 3126.17,2272.21 3110.89,2287.93C3095.6,2303.64 3084.16,2324.9 3076.56,2351.7C3068.95,2378.51 3065.15,2408.55 3065.15,2441.83C3065.15,2475.51 3069.03,2506.07 3076.79,2533.49C3084.54,2560.91 3096.06,2582.68 3111.35,2598.81C3126.63,2614.93 3145.64,2622.99 3168.37,2622.99Z" style="fill-rule:nonzero;"/>
            <path d="M3584,2205.2L3584,2266.82L3400.61,2266.82L3400.61,2205.2L3584,2205.2ZM3454.06,2091.82L3508.43,2091.82L3508.43,2542.89C3508.43,2563.43 3510.7,2578.78 3515.23,2588.95C3519.76,2599.12 3525.6,2605.89 3532.74,2609.28C3539.88,2612.67 3547.45,2614.37 3555.43,2614.37C3561.43,2614.37 3566.34,2613.91 3570.18,2612.98C3574.02,2612.06 3577.09,2611.29 3579.4,2610.67L3590.45,2675.99C3586.77,2677.84 3581.62,2679.74 3575.02,2681.69C3568.41,2683.64 3560.04,2684.62 3549.91,2684.62C3534.55,2684.62 3519.53,2680.2 3504.86,2671.37C3490.19,2662.53 3478.06,2649.08 3468.46,2631.01C3458.86,2612.93 3454.06,2590.13 3454.06,2562.61L3454.06,2091.82Z" style="fill-rule:nonzero;"/>
            <path d="M3770.16,2689.55C3747.74,2689.55 3727.39,2683.85 3709.11,2672.45C3690.83,2661.05 3676.32,2644.51 3665.56,2622.84C3654.81,2601.17 3649.44,2574.93 3649.44,2544.12C3649.44,2517.01 3653.43,2494.97 3661.42,2478.03C3669.4,2461.08 3680.08,2447.78 3693.44,2438.13C3706.81,2428.47 3721.59,2421.24 3737.79,2416.41C3754,2411.58 3770.32,2407.73 3786.75,2404.85C3808.26,2401.16 3825.73,2398.33 3839.17,2396.38C3852.61,2394.43 3862.44,2391.09 3868.66,2386.37C3874.88,2381.64 3877.99,2373.43 3877.99,2361.72L3877.99,2359.25C3877.99,2328.85 3871.81,2305.23 3859.44,2288.39C3847.08,2271.55 3828.38,2263.12 3803.34,2263.12C3777.38,2263.12 3757.03,2270.72 3742.29,2285.92C3727.54,2301.12 3717.17,2317.35 3711.18,2334.61L3659.57,2309.96C3668.79,2281.2 3681.12,2258.76 3696.55,2242.64C3711.99,2226.51 3728.88,2215.21 3747.24,2208.74C3765.59,2202.27 3783.68,2199.04 3801.5,2199.04C3812.86,2199.04 3825.96,2200.84 3840.78,2204.43C3855.6,2208.02 3869.96,2215.37 3883.86,2226.46C3897.76,2237.55 3909.32,2254.29 3918.54,2276.68C3927.75,2299.07 3932.36,2329.06 3932.36,2366.65L3932.36,2678.45L3877.99,2678.45L3877.99,2614.37L3875.22,2614.37C3871.54,2624.64 3865.39,2635.63 3856.79,2647.34C3848.19,2659.04 3836.75,2669.01 3822.46,2677.22C3808.18,2685.44 3790.74,2689.55 3770.16,2689.55ZM3778.46,2624.23C3799.96,2624.23 3818.12,2618.58 3832.95,2607.28C3847.77,2595.98 3858.98,2581.4 3866.58,2563.53C3874.19,2545.66 3877.99,2526.87 3877.99,2507.15L3877.99,2440.59C3875.68,2444.29 3870.66,2447.63 3862.9,2450.61C3855.14,2453.59 3846.23,2456.15 3836.17,2458.31C3826.11,2460.47 3816.36,2462.32 3806.91,2463.86C3797.47,2465.4 3789.82,2466.68 3783.99,2467.71C3769.86,2470.17 3756.68,2474.13 3744.47,2479.57C3732.26,2485.01 3722.43,2493.13 3714.98,2503.91C3707.53,2514.69 3703.81,2529.33 3703.81,2547.82C3703.81,2573.08 3710.84,2592.13 3724.89,2604.97C3738.95,2617.81 3756.8,2624.23 3778.46,2624.23Z" style="fill-rule:nonzero;"/>
            <path d="M4039.27,2678.45L4039.27,2047.45L4093.64,2047.45L4093.64,2280.38L4098.25,2280.38C4102.24,2272.16 4107.81,2261.64 4114.95,2248.8C4122.09,2235.96 4132.38,2224.46 4145.82,2214.29C4159.26,2204.12 4177.5,2199.04 4200.54,2199.04C4230.34,2199.04 4256.61,2209 4279.34,2228.92C4302.07,2248.85 4319.81,2277.09 4332.56,2313.65C4345.31,2350.22 4351.68,2393.35 4351.68,2443.06C4351.68,2493.18 4345.31,2536.57 4332.56,2573.24C4319.81,2609.9 4302.15,2638.25 4279.57,2658.27C4256.99,2678.3 4230.95,2688.31 4201.47,2688.31C4178.73,2688.31 4160.53,2683.23 4146.86,2673.06C4133.19,2662.89 4122.67,2651.29 4115.3,2638.25C4107.92,2625.2 4102.24,2614.37 4098.25,2605.74L4091.8,2605.74L4091.8,2678.45L4039.27,2678.45ZM4092.72,2441.83C4092.72,2477.57 4096.64,2509.05 4104.47,2536.26C4112.3,2563.48 4123.74,2584.74 4138.8,2600.04C4153.85,2615.34 4172.28,2622.99 4194.09,2622.99C4216.82,2622.99 4235.83,2614.93 4251.11,2598.81C4266.4,2582.68 4277.92,2560.91 4285.68,2533.49C4293.43,2506.07 4297.31,2475.51 4297.31,2441.83C4297.31,2408.55 4293.51,2378.51 4285.9,2351.7C4278.3,2324.9 4266.86,2303.64 4251.58,2287.93C4236.29,2272.21 4217.13,2264.36 4194.09,2264.36C4171.97,2264.36 4153.39,2271.8 4138.34,2286.69C4123.28,2301.59 4111.92,2322.33 4104.24,2348.93C4096.56,2375.53 4092.72,2406.5 4092.72,2441.83Z" style="fill-rule:nonzero;"/>
            <rect x="4434.63" y="2047.45" width="54.373" height="631.005"/>
            <path d="M4736.9,2688.31C4702.81,2688.31 4673.43,2678.2 4648.78,2657.97C4624.13,2637.73 4605.16,2609.39 4591.87,2572.93C4578.59,2536.47 4571.94,2494 4571.94,2445.52C4571.94,2397.05 4578.59,2354.27 4591.87,2317.2C4605.16,2280.12 4623.74,2251.16 4647.63,2230.31C4671.51,2209.46 4699.43,2199.04 4731.38,2199.04C4749.81,2199.04 4768.01,2203.15 4785.98,2211.36C4803.95,2219.58 4820.31,2232.88 4835.05,2251.26C4849.8,2269.65 4861.55,2293.93 4870.3,2324.13C4879.06,2354.32 4883.44,2391.5 4883.44,2435.66L4883.44,2466.47L4610.65,2466.47L4610.65,2403.62L4828.14,2403.62C4828.14,2376.92 4824.19,2353.09 4816.28,2332.14C4808.37,2311.19 4797.15,2294.65 4782.64,2282.53C4768.12,2270.42 4751.04,2264.36 4731.38,2264.36C4709.72,2264.36 4691.02,2271.49 4675.27,2285.77C4659.53,2300.05 4647.44,2318.58 4638.99,2341.38C4630.54,2364.18 4626.32,2388.63 4626.32,2414.71L4626.32,2456.62C4626.32,2492.36 4630.96,2522.6 4640.25,2547.35C4649.55,2572.11 4662.49,2590.9 4679.08,2603.74C4695.66,2616.58 4714.94,2622.99 4736.9,2622.99C4751.19,2622.99 4764.13,2620.27 4775.73,2614.83C4787.32,2609.39 4797.35,2601.17 4805.79,2590.18C4814.24,2579.19 4820.77,2565.48 4825.38,2549.05L4877.91,2568.77C4872.38,2592.59 4863.09,2613.49 4850.03,2631.47C4836.97,2649.44 4820.85,2663.41 4801.65,2673.37C4782.45,2683.33 4760.87,2688.31 4736.9,2688.31Z" style="fill-rule:nonzero;"/>
        </g>
        <g transform="matrix(0.940166,-1.11022e-16,0,1.40792,-209.372,-126.487)">
            <g>
                <g transform="matrix(0.953166,-1.17918e-16,2.37698e-16,0.953111,-894.794,-2869.08)">
                    <path d="M1276.68,3011.38C1090.82,3011.38 939.931,3162.27 939.931,3348.12C939.931,3533.98 1090.82,3684.87 1276.68,3684.87C1462.53,3684.87 1613.42,3533.98 1613.42,3348.12C1613.42,3162.27 1462.53,3011.38 1276.68,3011.38L1276.68,3011.38ZM1276.68,3057.82C1436.9,3057.82 1566.98,3187.9 1566.98,3348.12C1566.98,3508.34 1436.9,3638.42 1276.68,3638.42C1116.46,3638.42 986.379,3508.34 986.379,3348.12C986.379,3187.9 1116.46,3057.82 1276.68,3057.82Z"/>
                </g>
                <g transform="matrix(1.10681,0,0,1.10675,-34.4247,-34.4434)">
                    <g transform="matrix(0.465039,-6.01098e-17,1.1597e-16,0.485859,-406.593,-1302.18)">
                        <path d="M1566.98,3348.12C1566.98,3187.8 1437,3057.82 1276.68,3057.82C1116.35,3057.82 986.379,3187.8 986.379,3348.12" style="fill:none;stroke:black;stroke-width:84.11px;"/>
                    </g>
                    <g transform="matrix(-0.465039,1.1961e-16,-1.72921e-16,-0.485859,1050.82,1946.4)">
                        <path d="M1566.98,3348.12C1566.98,3187.8 1437,3057.82 1276.68,3057.82C1116.35,3057.82 986.379,3187.8 986.379,3348.12" style="fill:none;stroke:black;stroke-width:84.11px;"/>
                    </g>
                </g>
            </g>
        </g>
    </g>
</svg>
